<svg height="200" width="200" xmlns="http://www.w3.org/2000/svg">
<g transform="rotate(0.0 0 0)"><path d="M10 10 L70 10 L70 70 L10 70 Z" fill="rgb(255,0,0)" />
</g><g transform="rotate(15.0 0 0)"><defs>
<clipPath id="path0">
<path d="M20 20 L50 20 L50 50 L20 50 Z" fill="none"/>
</clipPath>
</defs>
<path d="M12 12 L18 6 L150 56 Z" fill="rgb(0,255,0)" clip-path="url(#path0)" />
</g><g transform="rotate(30.0 0 0)"><text x="100" y="100" font-family="Arial" font-size="15" style="stroke:rgb(0,255,0)">Hello world</text></g><g transform="rotate(45.0 0 0)"><path d="M10 10 L70 10 L70 70 L10 70 Z" fill="rgb(255,0,0)" />
</g><g transform="rotate(60.0 0 0)"><defs>
<clipPath id="path1">
<path d="M20 20 L50 20 L50 50 L20 50 Z" fill="none"/>
</clipPath>
</defs>
<path d="M12 12 L18 6 L150 56 Z" fill="rgb(0,255,0)" clip-path="url(#path1)" />
</g><g transform="rotate(75.0 0 0)"><text x="100" y="100" font-family="Arial" font-size="15" style="stroke:rgb(0,255,0)">Hello world</text></g><g transform="rotate(90.0 0 0)"><path d="M10 10 L70 10 L70 70 L10 70 Z" fill="rgb(255,0,0)" />
</g><g transform="rotate(105.0 0 0)"><defs>
<clipPath id="path2">
<path d="M20 20 L50 20 L50 50 L20 50 Z" fill="none"/>
</clipPath>
</defs>
<path d="M12 12 L18 6 L150 56 Z" fill="rgb(0,255,0)" clip-path="url(#path2)" />
</g><g transform="rotate(120.0 0 0)"><text x="100" y="100" font-family="Arial" font-size="15" style="stroke:rgb(0,255,0)">Hello world</text></g><g transform="rotate(135.0 0 0)"><path d="M10 10 L70 10 L70 70 L10 70 Z" fill="rgb(255,0,0)" />
</g><g transform="rotate(150.0 0 0)"><defs>
<clipPath id="path3">
<path d="M20 20 L50 20 L50 50 L20 50 Z" fill="none"/>
</clipPath>
</defs>
<path d="M12 12 L18 6 L150 56 Z" fill="rgb(0,255,0)" clip-path="url(#path3)" />
</g><g transform="rotate(165.0 0 0)"><text x="100" y="100" font-family="Arial" font-size="15" style="stroke:rgb(0,255,0)">Hello world</text></g><g transform="rotate(180.0 0 0)"><path d="M10 10 L70 10 L70 70 L10 70 Z" fill="rgb(255,0,0)" />
</g><g transform="rotate(195.0 0 0)"><defs>
<clipPath id="path4">
<path d="M20 20 L50 20 L50 50 L20 50 Z" fill="none"/>
</clipPath>
</defs>
<path d="M12 12 L18 6 L150 56 Z" fill="rgb(0,255,0)" clip-path="url(#path4)" />
</g><g transform="rotate(210.0 0 0)"><text x="100" y="100" font-family="Arial" font-size="15" style="stroke:rgb(0,255,0)">Hello world</text></g></svg>